<svg width="15" height="15" viewBox="0 0 15 15" fill="none" xmlns="http://www.w3.org/2000/svg">
<path fill-rule="evenodd" clip-rule="evenodd" d="M0 7.49988C0 11.6353 3.36456 14.9999 7.49997 14.9999C11.6354 14.9999 15 11.6353 15 7.49988C15 3.36446 11.6354 -0.00012207 7.5 -0.00012207C3.36459 -0.00012207 0 3.36446 0 7.49988ZM9.52192 10.2798L7.1209 7.87869C7.02138 7.77823 6.96451 7.64206 6.96451 7.49991V2.6481C6.96451 2.35223 7.20463 2.11244 7.5 2.11244C7.7954 2.11244 8.03549 2.35223 8.03549 2.6481V7.2781L10.2801 9.52226C10.4886 9.73159 10.4886 10.0707 10.2801 10.2798C10.1758 10.3847 10.0384 10.437 9.90102 10.437C9.76359 10.437 9.62774 10.3847 9.52192 10.2798Z" fill="#9D977A"/>
</svg>
