<svg width="15" height="15" viewBox="0 0 15 15" fill="none" xmlns="http://www.w3.org/2000/svg">
<path d="M9.1425 2.20776L1.63862 9.67712C1.48105 9.83174 1.37088 10.0281 1.32107 10.2432L0.527188 13.4049C0.494387 13.5319 0.49122 13.6648 0.517934 13.7932C0.544648 13.9217 0.600527 14.0423 0.681255 14.1457C0.761983 14.2491 0.8654 14.3326 0.983519 14.3896C1.10164 14.4467 1.2313 14.4759 1.36249 14.4749C1.43366 14.4817 1.50532 14.4817 1.57649 14.4749L4.7382 13.681C4.94959 13.627 5.14267 13.5174 5.29736 13.3635L12.8012 5.83199L9.1425 2.20776Z" fill="#9D977A"/>
<path d="M14.445 1.51741L13.4647 0.537142C13.1027 0.192331 12.622 0 12.122 0C11.6221 0 11.1413 0.192331 10.7793 0.537142L9.875 1.44147L13.5337 5.10022L14.445 4.19589C14.7991 3.84012 14.9979 3.3586 14.9979 2.85665C14.9979 2.35469 14.7991 1.87317 14.445 1.51741Z" fill="#9D977A"/>
</svg>
