<svg width="17" height="17" viewBox="0 0 17 17" fill="none" xmlns="http://www.w3.org/2000/svg">
<path d="M15.8738 6.9697L15.0611 6.15845C14.962 6.05968 14.8834 5.94228 14.8299 5.81302C14.7764 5.68375 14.749 5.54517 14.7492 5.40526V4.45484C14.7486 3.8766 14.5187 3.3222 14.1099 2.91325C13.7011 2.5043 13.1468 2.2742 12.5685 2.27341H11.6181C11.3362 2.27265 11.0658 2.16089 10.8657 1.96231L10.0537 1.14957C9.64432 0.741262 9.08974 0.511963 8.51157 0.511963C7.93339 0.511963 7.37881 0.741262 6.96946 1.14957L6.15821 1.96231C5.9578 2.16107 5.68728 2.27307 5.40502 2.27415H4.45385C3.87561 2.27494 3.32129 2.50505 2.91248 2.91399C2.50367 3.32294 2.27375 3.87734 2.27316 4.45558V5.40526C2.27353 5.54512 2.24623 5.68367 2.19284 5.81293C2.13945 5.94219 2.06102 6.05962 1.96206 6.15845L1.14933 6.9697C0.741018 7.37906 0.511719 7.93363 0.511719 8.51181C0.511719 9.08999 0.741018 9.64456 1.14933 10.0539L1.96206 10.8652C2.06115 10.9639 2.13972 11.0813 2.19324 11.2106C2.24676 11.3399 2.27418 11.4784 2.27391 11.6184V12.5688C2.2745 13.147 2.50441 13.7014 2.91322 14.1104C3.32203 14.5193 3.87635 14.7494 4.45459 14.7502H5.40502C5.68708 14.7512 5.95742 14.8632 6.15746 15.0621L6.96946 15.874C7.37871 16.2825 7.93333 16.512 8.51157 16.512C9.0898 16.512 9.64442 16.2825 10.0537 15.874L10.8649 15.0621C11.0653 14.8633 11.3359 14.7513 11.6181 14.7502H12.5693C13.1475 14.7494 13.7018 14.5193 14.1107 14.1104C14.5195 13.7014 14.7494 13.147 14.75 12.5688V11.6184C14.7497 11.4784 14.7771 11.3399 14.8306 11.2106C14.8842 11.0813 14.9627 10.9639 15.0618 10.8652L15.8738 10.0539C16.2821 9.64456 16.5114 9.08999 16.5114 8.51181C16.5114 7.93363 16.2821 7.37906 15.8738 6.9697ZM11.1388 7.41626L8.16176 10.3933C8.11004 10.4452 8.04857 10.4865 7.98087 10.5146C7.91318 10.5427 7.8406 10.5572 7.7673 10.5572C7.694 10.5572 7.62142 10.5427 7.55373 10.5146C7.48604 10.4865 7.42457 10.4452 7.37284 10.3933L5.88432 8.90478C5.78572 8.79896 5.73204 8.65901 5.73459 8.5144C5.73715 8.36979 5.79573 8.23181 5.898 8.12954C6.00027 8.02727 6.13825 7.96869 6.28286 7.96614C6.42747 7.96358 6.56742 8.01726 6.67324 8.11586L7.7673 9.21067L10.3499 6.62883C10.4557 6.53023 10.5957 6.47655 10.7403 6.4791C10.8849 6.48165 11.0229 6.54024 11.1251 6.64251C11.2274 6.74478 11.286 6.88275 11.2885 7.02736C11.2911 7.17197 11.2374 7.31193 11.1388 7.41775V7.41626Z" fill="#1976D2"/>
</svg>
